# AST/ASF file generated using VICON BodyLanguage
# -----------------------------------------------
:version 1.10
:name VICON
:units
  mass 1.0
  length 0.45
  angle deg
:documentation
   .ast/.asf automatically generated from VICON data using
   VICON BodyBuilder and BodyLanguage model FoxedUp or BRILLIANT.MOD
:root
   order TX TY TZ RX RY RZ
   axis XYZ
   position 0 0 0  
   orientation 0 0 0 
:bonedata
  begin
     id 1 
     name lhipjoint
     direction 0.589753 -0.68606 0.426044 
     length 2.54082 
     axis 0 0 0  XYZ
  end
  begin
     id 2 
     name lfemur
     direction 0.34202 -0.939693 0  
     length 7.04539  
     axis 0 0 20  XYZ
    dof rx ry rz
    limits (-160.0 20.0)
           (-70.0 70.0)
           (-60.0 70.0)
  end
  begin
     id 3 
     name ltibia
     direction 0.34202 -0.939693 0   
     length 7.83772   
     axis 0 0 20   XYZ
    dof rx
    limits (-10.0 170.0)
  end
  begin
     id 4 
     name lfoot
     direction 0.0596604 -0.163915 0.984669   
     length 2.39542   
     axis -90 7.62852e-016 20   XYZ
    dof rx rz
    limits (-45.0 90.0)
           (-70.0 20.0)
  end
  begin
     id 5 
     name ltoes
     direction 1.53514e-011 -4.21954e-011 1   
     length 1.2047   
     axis -90 7.62852e-016 20   XYZ
    dof rx
    limits (-90.0 20.0)
  end
  begin
     id 6 
     name rhipjoint
     direction -0.580585 -0.69168 0.429534   
     length 2.52018  
     axis 0 0 0  XYZ 
  end
  begin
     id 7 
     name rfemur
     direction -0.34202 -0.939693 0   
     length 7.0101   
     axis 0 0 -20   XYZ
    dof rx ry rz
    limits (-160.0 20.0)
           (-70.0 70.0)
           (-70.0 60.0)
  end
  begin
     id 8 
     name rtibia
     direction -0.34202 -0.939693 0   
     length 7.70628   
     axis 0 0 -20   XYZ
    dof rx
    limits (-10.0 170.0)
 end
 begin
     id 9 
     name rfoot
     direction -0.0696237 -0.19129 0.979061   
     length 2.52466  
     axis -90 -7.62852e-016 -20   XYZ
    dof rx rz
    limits (-45.0 90.0)
           (-20.0 70.0)
  end
  begin
     id 10 
     name rtoes
     direction -1.53519e-011 -4.21793e-011 1   
     length 1.266   
     axis -90 -7.62852e-016 -20   XYZ
    dof rx
    limits (-90.0 20.0)
  end
  begin
     id 11 
     name lowerback
     direction 0.00381965 0.995707 -0.0924856   
     length 2.20825   
     axis 0 0 0   XYZ
    dof rx ry rz
    limits (-20.0 45.0)
           (-30.0 30.0)
           (-30.0 30.0)
  end
  begin
     id 12 
     name upperback
     direction -0.0139043 0.999634 -0.0231929   
     length 2.21517   
     axis 0 0 0   XYZ
    dof rx ry rz
    limits (-20.0 45.0)
           (-30.0 30.0)
           (-30.0 30.0)
  end
  begin
     id 13 
     name thorax
     direction -0.0143933 0.999691 0.0202892   
     length 2.22911   
     axis 0 0 0   XYZ
    dof rx ry rz
    limits (-20.0 45.0)
           (-30.0 30.0)
           (-30.0 30.0)
  end
  begin
     id 14 
     name lowerneck
     direction -0.0251153 0.981819 0.188153   
     length 1.61782   
     axis 0 0 0   XYZ
    dof rx ry rz
    limits (-20.0 45.0)
           (-30.0 30.0)
           (-30.0 30.0)
  end
  begin
     id 15 
     name upperneck
     direction 0.0563891 0.969357 -0.239095   
     length 1.64526   
     axis 0 0 0   XYZ
    dof rx ry rz
    limits (-20.0 45.0)
           (-30.0 30.0)
           (-30.0 30.0)
  end
  begin
     id 16
     name head
     direction 0.0208328 0.99459 -0.101773  
     length 1.67436  
     axis 0 0 0   XYZ
    dof rx ry rz
    limits (-20.0 45.0)
           (-30.0 30.0)
           (-30.0 30.0)
  end
  begin
     id 17 
     name lclavicle
     direction 0.917689 0.397224 0.00772059  
     length 3.31102  
     axis 0 0 0   XYZ
    dof ry rz
    limits (-20.0 10.0)
           (0.0 20.0)
  end
  begin
     id 18 
     name lhumerus
     direction 1 -4.4896e-011 2.32308e-027   
     length 5.25537   
     axis 180 -30 -90   XYZ
    dof rx ry rz
    limits (-60.0 90.0)
           (-90.0 90.0)
           (-90.0 90.0)
  end
  begin
     id 19
     name lradius
     direction 1 -4.49005e-011 -2.04271e-027   
     length 3.38855   
     axis 180 -30 -90   XYZ
    dof rx
    limits (-10.0 170.0)
  end
  begin
     id 20
     name lwrist
     direction 1 -4.48892e-011 2.56952e-028   
     length 1.69428   
     axis -5.12785e-016 90 90   XYZ
    dof ry
    limits (-180.0 0.0)
 end
  begin
     id 21 
     name lhand
     direction 1 -4.48966e-011 5.13905e-028   
     length 0.614516   
     axis -3.27915e-016 90 90   XYZ
    dof rx rz
    limits (-90.0 90.0)
           (-45.0 45.0)
  end
  begin
     id 22 
     name lfingers
     direction 1 -4.48979e-011 1.02781e-027   
     length 0.495439   
     axis -6.5583e-016 90 90   XYZ
    dof rx
    limits (0.0 90.0)
  end
  begin
     id 23
     name lthumb
     direction 0.707107 -6.35001e-011 0.707107   
     length 0.711354   
     axis -90 45 2.85299e-015   XYZ
    dof rx rz
    limits (-45.0 45.0)
           (-45.0 45.0)
  end
  begin
     id 24 
     name rclavicle
     direction -0.938556 0.342765 -0.0403177   
     length 3.27019  
     axis 0 0 0   XYZ 
    dof ry rz
    limits (-10.0 20.0)
           (-20.0 0.0)
  end
  begin
     id 25 
     name rhumerus
     direction -1 -4.48966e-011 2.52291e-027  
     length 5.38183   
     axis 180 30 90   XYZ
    dof rx ry rz
    limits (-90.0 60.0)
           (-90.0 90.0)
           (-90.0 90.0)
  end
  begin
     id 26 
     name rradius
     direction -1 -4.4896e-011 1.5797e-027   
     length 3.16988   
     axis 180 30 90   XYZ
    dof rx
    limits (-10.0 170.0)
  end
  begin
     id 27 
     name rwrist
     direction -1 -4.48947e-011 2.56952e-028   
     length 1.58494   
     axis -5.12785e-016 -90 -90   XYZ
    dof ry
    limits (-180.0 0.0)
  end
  begin
     id 28
     name rhand
     direction -1 -4.49098e-011 5.13905e-028   
     length 0.637679   
     axis -3.27915e-016 -90 -90   XYZ
    dof rx rz
    limits (-90.0 90.0)
           (-45.0 45.0)
  end
  begin
     id 29
     name rfingers
     direction -1 -4.49026e-011 1.02781e-027   
     length 0.514113   
     axis -6.5583e-016 -90 -90   XYZ
    dof rx
    limits (0.0 90.0)
  end
  begin
     id 30
     name rthumb
     direction -0.707107 -6.3491e-011 0.707107   
     length 0.738167   
     axis -90 -45 -2.85299e-015   XYZ
    dof rx rz
    limits (-45.0 45.0)
           (-45.0 45.0)
  end
:hierarchy
  begin
    root lhipjoint rhipjoint lowerback
    lhipjoint lfemur
    lfemur ltibia
    ltibia lfoot
    lfoot ltoes
    rhipjoint rfemur
    rfemur rtibia
    rtibia rfoot
    rfoot rtoes
    lowerback upperback
    upperback thorax
    thorax lowerneck lclavicle rclavicle
    lowerneck upperneck
    upperneck head
    lclavicle lhumerus
    lhumerus lradius
    lradius lwrist
    lwrist lhand lthumb
    lhand lfingers
    rclavicle rhumerus
    rhumerus rradius
    rradius rwrist
    rwrist rhand rthumb
    rhand rfingers
  end

#!OML:ASF H:\Swim\Project 1\Capture day 1\Session 1\swimmer.ASF
:FULLY-SPECIFIED
:DEGREES
189
root 8.06886 15.5653 30.1769 -177.496 -8.18428 178.361
lowerback 11.3354 -0.577669 0.563376
upperback 4.10775 -1.1486 -1.47391
thorax -2.10765 -0.731223 -1.69147
lowerneck -29.4123 -2.11972 -5.5904
upperneck 15.4921 -2.78259 8.82422
head 9.90684 -0.584655 3.60822
rclavicle 2.16178e-014 9.14409e-015
rhumerus 38.6 -13.2172 -59.687
rradius 71.4696
rwrist 9.27548
rhand 42.5138 -5.74961
rfingers 7.12502
rthumb 64.4434 -13.8267
lclavicle 2.16178e-014 9.14409e-015
lhumerus 35.0464 8.5773 50.2398
lradius 76.9482
lwrist -7.8141
lhand 42.3343 10.9446
lfingers 7.12502
lthumb 64.2997 19.246
rfemur -27.054 -14.8267 6.38394
rtibia 51.6364
rfoot -18.2982 -16.6537
rtoes -11.0598
lfemur -31.7524 3.76988 -11.3224
ltibia 52.4508
lfoot -18.1664 6.86977
ltoes -13.0928
190
root 8.06792 15.5635 30.1734 -177.492 -8.20272 178.371
lowerback 11.3234 -0.582664 0.577364
upperback 4.10659 -1.15302 -1.47198
thorax -2.10263 -0.733082 -1.69693
lowerneck -29.4848 -2.11369 -5.57818
upperneck 15.4931 -2.77386 8.81075
head 9.91783 -0.580242 3.60345
rclavicle 1.04859e-014 7.15625e-015
rhumerus 38.5611 -13.2725 -59.7825
rradius 71.4914
rwrist 9.20266
rhand 42.5785 -5.7663
rfingers 7.12502
rthumb 64.495 -13.762
lclavicle 1.04859e-014 7.15625e-015
lhumerus 35.0158 8.57985 50.2835
lradius 77.0171
lwrist -7.80079
lhand 42.43 10.956
lfingers 7.12502
lthumb 64.3764 19.1381
rfemur -27.0525 -14.8251 6.38926
rtibia 51.6624
rfoot -18.3104 -16.6793
rtoes -11.0771
lfemur -31.7695 3.75889 -11.3124
ltibia 52.4885
lfoot -18.1863 6.8665
ltoes -13.0839
191
root 8.06709 15.562 30.1698 -177.488 -8.22262 178.382
lowerback 11.3112 -0.587997 0.589044
upperback 4.1065 -1.15818 -1.4683
thorax -2.09638 -0.735351 -1.69921
lowerneck -29.5581 -2.10989 -5.5677
upperneck 15.4961 -2.76734 8.79662
head 9.92988 -0.576976 3.59842
rclavicle -1.07841e-014 -3.97569e-015
rhumerus 38.5272 -13.3216 -59.8631
rradius 71.5024
rwrist 9.12235
rhand 42.645 -5.78809
rfingers 7.12502
rthumb 64.5481 -13.6998
lclavicle -1.07841e-014 -3.97569e-015
lhumerus 34.9903 8.5784 50.3184
lradius 77.0699
lwrist -7.78258
lhand 42.5233 10.9694
lfingers 7.12502
lthumb 64.451 19.0346
rfemur -27.0494 -14.8238 6.39598
rtibia 51.6855
rfoot -18.3221 -16.7059
rtoes -11.0928
lfemur -31.7861 3.749 -11.3014
ltibia 52.523
lfoot -18.2064 6.85976
ltoes -13.0733
192
root 8.06632 15.5607 30.1662 -177.481 -8.2424 178.392
lowerback 11.2992 -0.59311 0.59635
upperback 4.10566 -1.16341 -1.46367
thorax -2.09092 -0.737662 -1.698
lowerneck -29.6296 -2.10921 -5.56035
upperneck 15.5008 -2.76403 8.7832
head 9.94258 -0.5753 3.59364
rclavicle -1.83876e-015 -1.17283e-014
rhumerus 38.4975 -13.3636 -59.929
rradius 71.5043
rwrist 9.047
rhand 42.7092 -5.82188
rfingers 7.12502
rthumb 64.5993 -13.652
lclavicle -1.83876e-015 -1.17283e-014
lhumerus 34.9687 8.57219 50.3455
lradius 77.1058
lwrist -7.7548
lhand 42.6023 10.9895
lfingers 7.12502
lthumb 64.5141 18.9552
rfemur -27.0468 -14.8236 6.40158
rtibia 51.7061
rfoot -18.3334 -16.7308
rtoes -11.1069
lfemur -31.8026 3.7396 -11.292
ltibia 52.5542
lfoot -18.2267 6.84991
ltoes -13.0535
193
root 8.0656 15.5597 30.1627 -177.475 -8.26121 178.399
lowerback 11.2886 -0.597948 0.599706
upperback 4.10519 -1.16877 -1.45821
thorax -2.08575 -0.740092 -1.69368
lowerneck -29.7025 -2.11039 -5.55524
upperneck 15.5096 -2.7627 8.77073
head 9.95717 -0.574467 3.58936
rclavicle 2.03754e-015 1.19271e-014
rhumerus 38.4716 -13.3987 -59.9805
rradius 71.4967
rwrist 8.99179
rhand 42.7638 -5.85757
rfingers 7.12502
rthumb 64.6428 -13.6181
lclavicle 2.03754e-015 1.19271e-014
lhumerus 34.9504 8.5621 50.3631
lradius 77.1253
lwrist -7.71356
lhand 42.6574 11.0013
lfingers 7.12502
lthumb 64.558 18.8972
rfemur -27.0424 -14.8234 6.40572
rtibia 51.724
rfoot -18.3469 -16.7528
rtoes -11.1155
lfemur -31.8163 3.73173 -11.2843
ltibia 52.582
lfoot -18.2466 6.83794
ltoes -13.0294
194
root 8.06492 15.5588 30.1591 -177.47 -8.2779 178.406
lowerback 11.2801 -0.601887 0.600083
upperback 4.1032 -1.17317 -1.45275
thorax -2.08322 -0.74204 -1.68776
lowerneck -29.7667 -2.11285 -5.55269
upperneck 15.5195 -2.76308 8.76109
head 9.97095 -0.574374 3.58619
rclavicle -7.25564e-015 -7.15625e-015
rhumerus 38.4472 -13.4274 -60.0211
rradius 71.4794
rwrist 8.9664
rhand 42.8057 -5.89388
rfingers 7.12502
rthumb 64.6762 -13.6008
lclavicle -7.25564e-015 -7.15625e-015
lhumerus 34.9334 8.54496 50.3713
lradius 77.1293
lwrist -7.65869
lhand 42.6865 11.0057
lfingers 7.12502
lthumb 64.5812 18.8647
rfemur -27.0352 -14.8222 6.40892
rtibia 51.7393
rfoot -18.3608 -16.773
rtoes -11.119
lfemur -31.8253 3.72497 -11.2771
ltibia 52.6058
lfoot -18.2655 6.82487
ltoes -12.9971
195
root 8.06431 15.5582 30.1555 -177.466 -8.29258 178.411
lowerback 11.274 -0.604943 0.597401
upperback 4.09947 -1.17667 -1.44816
thorax -2.08376 -0.743536 -1.68108
lowerneck -29.8228 -2.11464 -5.54771
upperneck 15.5307 -2.7631 8.74855
head 9.98378 -0.574412 3.58157
rclavicle -1.1778e-014 6.16232e-015
rhumerus 38.4237 -13.45 -60.0521
rradius 71.4532
rwrist 8.9748
rhand 42.8291 -5.92446
rfingers 7.12502
rthumb 64.6948 -13.6014
lclavicle -1.1778e-014 6.16232e-015
lhumerus 34.9187 8.52189 50.3704
lradius 77.1186
lwrist -7.59254
lhand 42.6944 10.9988
lfingers 7.12502
lthumb 64.5876 18.8476
rfemur -27.025 -14.8202 6.41037
rtibia 51.7511
rfoot -18.3751 -16.7912
rtoes -11.1139
lfemur -31.8296 3.71921 -11.2718
ltibia 52.6252
lfoot -18.2818 6.81212
ltoes -12.9628
196
root 8.06372 15.5578 30.1518 -177.463 -8.30571 178.41
lowerback 11.2703 -0.607364 0.587735
upperback 4.09447 -1.18017 -1.44579
thorax -2.08688 -0.74507 -1.67273
lowerneck -29.8668 -2.11503 -5.54331
upperneck 15.5401 -2.76164 8.73743
head 9.9939 -0.573863 3.57767
rclavicle 4.02539e-015 7.55382e-015
rhumerus 38.4039 -13.468 -60.0782
rradius 71.4201
rwrist 9.01488
rhand 42.8384 -5.94762
rfingers 7.12502
rthumb 64.7022 -13.6126
lclavicle 4.02539e-015 7.55382e-015
lhumerus 34.9054 8.49467 50.3602
lradius 77.0972
lwrist -7.52119
lhand 42.691 10.9802
lfingers 7.12502
lthumb 64.5848 18.8335
rfemur -27.0106 -14.8191 6.4041
rtibia 51.7593
rfoot -18.3895 -16.8063
rtoes -11.1004
lfemur -31.8274 3.71293 -11.2734
ltibia 52.6394
lfoot -18.2959 6.79969
ltoes -12.9244
197
root 8.06321 15.5575 30.1481 -177.462 -8.31613 178.409
lowerback 11.2683 -0.608522 0.577849
upperback 4.08899 -1.18208 -1.44476
thorax -2.09136 -0.745831 -1.6658
lowerneck -29.9013 -2.11373 -5.53634
upperneck 15.5478 -2.75884 8.725
head 10.0017 -0.572887 3.57295
rclavicle -7.95139e-016 -2.48481e-014
rhumerus 38.3874 -13.4845 -60.1011
rradius 71.3816
rwrist 9.07913
rhand 42.8477 -5.95329
rfingers 7.12502
rthumb 64.7096 -13.6064
lclavicle -7.95139e-016 -2.48481e-014
lhumerus 34.8956 8.46351 50.3402
lradius 77.0676
lwrist -7.44964
lhand 42.676 10.961
lfingers 7.12502
lthumb 64.5729 18.8333
rfemur -26.9936 -14.8146 6.39839
rtibia 51.7635
rfoot -18.4018 -16.8233
rtoes -11.0885
lfemur -31.82 3.70768 -11.2743
ltibia 52.6483
lfoot -18.3077 6.78839
ltoes -12.8862
198
root 8.06275 15.5574 30.1443 -177.46 -8.32699 178.404
lowerback 11.2662 -0.609404 0.565243
upperback 4.08429 -1.18412 -1.44588
thorax -2.09504 -0.746714 -1.65958
lowerneck -29.9352 -2.11158 -5.52843
upperneck 15.5579 -2.75542 8.7126
head 10.0102 -0.571532 3.56825
rclavicle -1.56543e-014 1.43125e-014
rhumerus 38.3773 -13.5012 -60.1203
rradius 71.3406
rwrist 9.15445
rhand 42.865 -5.94522
rfingers 7.12502
rthumb 64.7234 -13.576
lclavicle -1.56543e-014 1.43125e-014
lhumerus 34.8922 8.43225 50.3146
lradius 77.0327
lwrist -7.38633
lhand 42.6603 10.9451
lfingers 7.12502
lthumb 64.5604 18.8373
rfemur -26.9742 -14.81 6.38881
rtibia 51.7641
rfoot -18.4114 -16.8394
rtoes -11.075
lfemur -31.8096 3.70241 -11.2792
ltibia 52.6519
lfoot -18.3169 6.77785
ltoes -12.8549
199
root 8.06231 15.5575 30.1406 -177.459 -8.33574 178.399
lowerback 11.2647 -0.609579 0.553339
upperback 4.08015 -1.18524 -1.44729
thorax -2.09837 -0.747166 -1.65417
lowerneck -29.9706 -2.10841 -5.52153
upperneck 15.5722 -2.75078 8.70189
head 10.0204 -0.569374 3.56466
rclavicle -1.39149e-014 9.93923e-015
rhumerus 38.3722 -13.5172 -60.1343
rradius 71.2984
rwrist 9.23118
rhand 42.8954 -5.91982
rfingers 7.12502
rthumb 64.7475 -13.5116
lclavicle -1.39149e-014 9.93923e-015
lhumerus 34.8956 8.40335 50.2883
lradius 76.9943
lwrist -7.33777
lhand 42.6465 10.9332
lfingers 7.12502
lthumb 64.5493 18.8429
rfemur -26.9542 -14.803 6.38029
rtibia 51.7611
rfoot -18.4192 -16.8563
rtoes -11.0594
lfemur -31.7968 3.69918 -11.2836
ltibia 52.651
lfoot -18.3241 6.77023
ltoes -12.8408
200
root 8.06185 15.5578 30.137 -177.456 -8.34419 178.396
lowerback 11.2619 -0.610344 0.542806
upperback 4.07692 -1.18703 -1.4482
thorax -2.1001 -0.747958 -1.64896
lowerneck -30.0117 -2.10508 -5.51787
upperneck 15.591 -2.74551 8.69479
head 10.0332 -0.566526 3.56318
rclavicle -1.69464e-014 -1.07344e-014
rhumerus 38.3741 -13.5305 -60.1444
rradius 71.2568
rwrist 9.29895
rhand 42.9381 -5.88584
rfingers 7.12502
rthumb 64.7814 -13.4225
lclavicle -1.69464e-014 -1.07344e-014
lhumerus 34.9048 8.38013 50.2632
lradius 76.9542
lwrist -7.30765
lhand 42.6404 10.9299
lfingers 7.12502
lthumb 64.5445 18.8473
rfemur -26.9348 -14.7949 6.37364
rtibia 51.7547
rfoot -18.4267 -16.8706
rtoes -11.0395
lfemur -31.785 3.69746 -11.2869
ltibia 52.647
lfoot -18.3308 6.76235
ltoes -12.828
201
root 8.06129 15.5583 30.1333 -177.452 -8.35074 178.397
lowerback 11.2584 -0.611326 0.53756
upperback 4.07476 -1.1886 -1.44866
thorax -2.10046 -0.748635 -1.6463
lowerneck -30.0603 -2.10029 -5.51298
upperneck 15.6165 -2.73867 8.687
head 10.0496 -0.562722 3.56174
rclavicle 9.44227e-016 -5.56597e-015
rhumerus 38.3813 -13.5419 -60.1495
rradius 71.2157
rwrist 9.35236
rhand 42.9826 -5.84047
rfingers 7.12502
rthumb 64.8167 -13.3196
lclavicle 9.44227e-016 -5.56597e-015
lhumerus 34.9192 8.36233 50.2399
lradius 76.914
lwrist -7.29466
lhand 42.6411 10.926
lfingers 7.12502
lthumb 64.545 18.8426
rfemur -26.9159 -14.7846 6.37151
rtibia 51.7444
rfoot -18.432 -16.8852
rtoes -11.026
lfemur -31.773 3.69747 -11.2865
ltibia 52.6411
lfoot -18.3369 6.75527
ltoes -12.8196
